<mxfile host="app.diagrams.net" modified="2020-10-22T02:16:49.085Z" agent="5.0 (Windows NT 10.0; Win64; x64) AppleWebKit/537.36 (KHTML, like Gecko) Chrome/84.0.4147.135 Safari/537.36" etag="JSEMIpvLOgXPuT-P44nS" version="13.8.1" type="github" pages="2">
  <diagram id="C5RBs43oDa-KdzZeNtuy" name="客运班次">
    <mxGraphModel dx="1662" dy="794" grid="1" gridSize="10" guides="1" tooltips="1" connect="1" arrows="1" fold="1" page="1" pageScale="1" pageWidth="827" pageHeight="1169" math="0" shadow="0">
      <root>
        <mxCell id="WIyWlLk6GJQsqaUBKTNV-0" />
        <mxCell id="WIyWlLk6GJQsqaUBKTNV-1" parent="WIyWlLk6GJQsqaUBKTNV-0" />
        <mxCell id="UZsNs4SKX0UYaOykCDHB-0" value="dm_dl_passenger_departure - 大屏RDS&lt;br&gt;客运站班次信息" style="rounded=0;whiteSpace=wrap;html=1;fillColor=#FFFF33;" parent="WIyWlLk6GJQsqaUBKTNV-1" vertex="1">
          <mxGeometry x="250" y="140" width="220" height="70" as="geometry" />
        </mxCell>
        <mxCell id="UZsNs4SKX0UYaOykCDHB-2" style="edgeStyle=orthogonalEdgeStyle;rounded=0;orthogonalLoop=1;jettySize=auto;html=1;entryX=0.5;entryY=1;entryDx=0;entryDy=0;" parent="WIyWlLk6GJQsqaUBKTNV-1" source="UZsNs4SKX0UYaOykCDHB-1" target="UZsNs4SKX0UYaOykCDHB-0" edge="1">
          <mxGeometry relative="1" as="geometry" />
        </mxCell>
        <mxCell id="UZsNs4SKX0UYaOykCDHB-1" value="&lt;span style=&quot;color: rgb(34 , 34 , 34) ; font-family: &amp;#34;consolas&amp;#34; , &amp;#34;lucida console&amp;#34; , &amp;#34;courier new&amp;#34; , monospace ; text-align: left&quot;&gt;dws_dl_passenger_departure&amp;nbsp; - 大屏odps&lt;/span&gt;" style="rounded=0;whiteSpace=wrap;html=1;" parent="WIyWlLk6GJQsqaUBKTNV-1" vertex="1">
          <mxGeometry x="230" y="290" width="260" height="70" as="geometry" />
        </mxCell>
        <mxCell id="UZsNs4SKX0UYaOykCDHB-3" value="DI 同步" style="text;html=1;strokeColor=none;fillColor=none;align=center;verticalAlign=middle;whiteSpace=wrap;rounded=0;" parent="WIyWlLk6GJQsqaUBKTNV-1" vertex="1">
          <mxGeometry x="360" y="250" width="60" height="20" as="geometry" />
        </mxCell>
        <mxCell id="UZsNs4SKX0UYaOykCDHB-7" style="edgeStyle=orthogonalEdgeStyle;rounded=0;orthogonalLoop=1;jettySize=auto;html=1;entryX=0.5;entryY=1;entryDx=0;entryDy=0;" parent="WIyWlLk6GJQsqaUBKTNV-1" source="UZsNs4SKX0UYaOykCDHB-5" target="UZsNs4SKX0UYaOykCDHB-1" edge="1">
          <mxGeometry relative="1" as="geometry" />
        </mxCell>
        <mxCell id="UZsNs4SKX0UYaOykCDHB-5" value="tr_dl_passenger_departure - 大屏odps" style="rounded=0;whiteSpace=wrap;html=1;" parent="WIyWlLk6GJQsqaUBKTNV-1" vertex="1">
          <mxGeometry x="245" y="550" width="230" height="70" as="geometry" />
        </mxCell>
        <mxCell id="UZsNs4SKX0UYaOykCDHB-8" style="edgeStyle=orthogonalEdgeStyle;rounded=0;orthogonalLoop=1;jettySize=auto;html=1;entryX=0.5;entryY=1;entryDx=0;entryDy=0;" parent="WIyWlLk6GJQsqaUBKTNV-1" source="UZsNs4SKX0UYaOykCDHB-6" target="UZsNs4SKX0UYaOykCDHB-5" edge="1">
          <mxGeometry relative="1" as="geometry" />
        </mxCell>
        <mxCell id="UZsNs4SKX0UYaOykCDHB-6" value="tr_dl_passenger_departure&amp;nbsp;&lt;br&gt;千方RDS&lt;br&gt;项目名：&lt;span style=&quot;color: rgb(34 , 34 , 34) ; font-family: &amp;#34;consolas&amp;#34; , &amp;#34;lucida console&amp;#34; , &amp;#34;courier new&amp;#34; , monospace ; text-align: left&quot;&gt;rds_tocc_basic&lt;/span&gt;" style="rounded=0;whiteSpace=wrap;html=1;fillColor=#33FF33;" parent="WIyWlLk6GJQsqaUBKTNV-1" vertex="1">
          <mxGeometry x="237.5" y="690" width="245" height="60" as="geometry" />
        </mxCell>
        <mxCell id="UZsNs4SKX0UYaOykCDHB-9" value="DI 同步" style="text;html=1;strokeColor=none;fillColor=none;align=center;verticalAlign=middle;whiteSpace=wrap;rounded=0;" parent="WIyWlLk6GJQsqaUBKTNV-1" vertex="1">
          <mxGeometry x="354" y="650" width="60" height="20" as="geometry" />
        </mxCell>
        <mxCell id="UZsNs4SKX0UYaOykCDHB-10" value="客运班次 - 加工过程" style="rounded=0;whiteSpace=wrap;html=1;fillColor=#33FFFF;" parent="WIyWlLk6GJQsqaUBKTNV-1" vertex="1">
          <mxGeometry x="245" y="420" width="236" height="70" as="geometry" />
        </mxCell>
        <mxCell id="UZsNs4SKX0UYaOykCDHB-13" value="大屏RDS：&lt;br&gt;大屏ODPS:&lt;br&gt;加工过程：&lt;br&gt;&lt;div style=&quot;text-align: left&quot;&gt;&lt;span&gt;千方RDS:&lt;/span&gt;&lt;/div&gt;" style="rounded=0;whiteSpace=wrap;html=1;fillColor=#FFFFFF;" parent="WIyWlLk6GJQsqaUBKTNV-1" vertex="1">
          <mxGeometry x="580" y="50" width="210" height="90" as="geometry" />
        </mxCell>
      </root>
    </mxGraphModel>
  </diagram>
  <diagram id="vf85bLdv5m-1XEsonG3R" name="第 2 页">
    <mxGraphModel dx="1662" dy="794" grid="1" gridSize="10" guides="1" tooltips="1" connect="1" arrows="1" fold="1" page="1" pageScale="1" pageWidth="827" pageHeight="1169" math="0" shadow="0">
      <root>
        <mxCell id="nDMv6o2NuEtNZms_wrHu-0" />
        <mxCell id="nDMv6o2NuEtNZms_wrHu-1" parent="nDMv6o2NuEtNZms_wrHu-0" />
      </root>
    </mxGraphModel>
  </diagram>
</mxfile>
